<?xml version="1.0" standalone="no"?>
<!DOCTYPE svg PUBLIC "-//W3C//DTD SVG 20010904//EN"
 "http://www.w3.org/TR/2001/REC-SVG-20010904/DTD/svg10.dtd">
<svg version="1.0" xmlns="http://www.w3.org/2000/svg"
 width="968.000000pt" height="413.000000pt" viewBox="0 0 968.000000 413.000000"
 preserveAspectRatio="xMidYMid meet">
<metadata>
Created by potrace 1.15, written by Peter Selinger 2001-2017
</metadata>
<g transform="translate(0.000000,413.000000) scale(0.100000,-0.100000)"
fill="#000000" stroke="none">
<path d="M1464 3861 c-69 -27 -1377 -684 -1401 -703 -14 -11 -17 -56 -5 -74 4
-7 354 -185 779 -398 839 -419 832 -416 968 -401 64 6 111 28 686 315 339 170
620 306 623 303 3 -4 6 -236 6 -517 l0 -511 -188 -102 c-103 -56 -222 -120
-265 -143 l-78 -42 3 309 3 310 -80 -37 -80 -37 -3 -681 -2 -682 -300 -150
c-165 -83 -304 -150 -310 -150 -6 0 -10 271 -12 743 l-3 742 -28 60 c-57 122
-49 117 -915 547 -431 213 -792 388 -801 388 -10 0 -26 -9 -37 -21 -18 -20
-19 -50 -22 -798 -2 -482 1 -808 7 -860 14 -109 46 -168 135 -243 57 -48 166
-106 697 -373 346 -173 631 -315 634 -315 3 0 5 43 5 95 l0 95 -567 284 c-313
157 -597 304 -632 327 -109 72 -101 13 -108 843 -4 423 -2 715 3 718 15 9
1355 -665 1390 -699 16 -16 39 -47 50 -69 18 -37 19 -73 24 -850 5 -781 6
-813 24 -833 11 -12 30 -21 43 -21 13 0 217 95 453 212 l430 211 0 373 0 372
260 141 c143 78 262 141 265 141 3 0 5 -169 5 -376 l0 -375 31 18 c50 29 108
101 124 156 13 43 15 189 15 1019 l0 969 -25 24 c-14 15 -35 25 -52 24 -51 0
-201 -70 -783 -364 -315 -159 -597 -298 -625 -308 -27 -10 -72 -19 -100 -20
-46 -1 -79 14 -435 197 -721 371 -912 472 -913 482 -1 5 242 131 539 279 297
149 567 286 600 305 50 29 68 35 119 34 53 0 74 -7 170 -56 61 -30 357 -173
658 -318 l548 -262 67 24 c40 15 67 30 67 39 0 9 -269 149 -703 367 l-702 352
-93 0 c-77 -1 -104 -5 -163 -29z"/>
<path d="M3580 1545 l0 -515 105 0 105 0 0 515 0 515 -105 0 -105 0 0 -515z"/>
<path d="M3980 1545 l0 -515 110 0 110 0 2 288 3 289 145 -163 c80 -89 148
-162 151 -161 4 1 71 74 150 162 l144 159 3 -287 2 -287 110 0 110 0 0 515 0
515 -42 0 -43 0 -214 -245 c-118 -135 -218 -244 -222 -243 -4 2 -103 112 -220
246 l-212 242 -44 0 -43 0 0 -515z"/>
<path d="M5210 1545 l0 -515 110 0 110 0 0 515 0 515 -110 0 -110 0 0 -515z"/>
<path d="M5620 1545 l0 -515 110 0 110 0 2 212 3 212 185 -211 185 -212 138 0
c75 -1 137 2 137 7 0 4 -104 124 -231 267 -127 143 -233 265 -236 272 -2 6 78
110 179 230 101 120 189 226 197 236 13 16 6 17 -110 17 l-124 0 -162 -196
-163 -196 0 196 0 196 -110 0 -110 0 0 -515z"/>
<path d="M6775 1593 c-103 -257 -196 -490 -206 -516 l-19 -48 117 3 117 3 29
78 30 77 227 0 227 0 28 -72 c15 -40 31 -77 35 -81 4 -4 57 -6 117 -5 l111 3
-203 510 -202 510 -111 3 -110 3 -187 -468z m302 -191 c-77 -1 -141 -1 -143 1
-2 2 29 85 69 184 l72 181 71 -181 71 -182 -140 -3z"/>
<path d="M7730 1546 l0 -516 105 0 105 0 0 210 0 210 93 0 92 -1 120 -209 120
-210 123 0 c67 0 122 3 122 8 0 4 -56 104 -124 222 l-123 215 48 28 c96 54
134 140 127 284 -7 132 -48 196 -158 247 -42 20 -65 21 -347 24 l-303 3 0
-515z m587 282 c38 -38 38 -97 1 -134 -34 -34 -83 -43 -245 -44 l-133 0 0 106
0 105 175 -3 175 -3 27 -27z"/>
<path d="M9051 2038 c-5 -13 -95 -239 -201 -503 -106 -264 -195 -486 -197
-493 -4 -10 20 -12 112 -10 l118 3 30 78 30 77 227 0 227 0 30 -77 29 -78 112
-3 c86 -2 112 0 112 10 0 7 -90 239 -201 516 l-201 502 -109 0 c-104 0 -110
-1 -118 -22z m126 -636 c-77 -1 -141 -1 -143 1 -2 2 29 85 69 184 l72 181 71
-181 71 -182 -140 -3z"/>
</g>
</svg>
